<mxfile host="app.diagrams.net" agent="Mozilla/5.0 (Macintosh; Intel Mac OS X 10_15_7) AppleWebKit/537.36 (KHTML, like Gecko) Chrome/131.0.0.0 Safari/537.36" version="26.0.6">
  <diagram name="第 1 页" id="Rp6RsX_k80zBzUGPA9jf">
    <mxGraphModel dx="1242" dy="769" grid="1" gridSize="10" guides="1" tooltips="1" connect="1" arrows="1" fold="1" page="1" pageScale="1" pageWidth="827" pageHeight="1169" background="#ffffff" math="0" shadow="0">
      <root>
        <mxCell id="0" />
        <mxCell id="1" parent="0" />
        <mxCell id="lyd2s_9okQ7E43MFHWTp-28" value="" style="rounded=0;whiteSpace=wrap;html=1;" vertex="1" parent="1">
          <mxGeometry x="10" y="100" width="760" height="570" as="geometry" />
        </mxCell>
        <mxCell id="lyd2s_9okQ7E43MFHWTp-1" value="&lt;font style=&quot;font-size: 18px;&quot;&gt;agent&lt;/font&gt;" style="rounded=0;whiteSpace=wrap;html=1;" vertex="1" parent="1">
          <mxGeometry x="40" y="390" width="100" height="40" as="geometry" />
        </mxCell>
        <mxCell id="lyd2s_9okQ7E43MFHWTp-3" value="" style="endArrow=none;dashed=1;html=1;rounded=0;endSize=6;strokeWidth=2;" edge="1" parent="1">
          <mxGeometry width="50" height="50" relative="1" as="geometry">
            <mxPoint x="30" y="200" as="sourcePoint" />
            <mxPoint x="750" y="200" as="targetPoint" />
          </mxGeometry>
        </mxCell>
        <mxCell id="lyd2s_9okQ7E43MFHWTp-5" value="" style="endArrow=none;dashed=1;html=1;rounded=0;strokeWidth=2;" edge="1" parent="1">
          <mxGeometry width="50" height="50" relative="1" as="geometry">
            <mxPoint x="440" y="120" as="sourcePoint" />
            <mxPoint x="440" y="660" as="targetPoint" />
          </mxGeometry>
        </mxCell>
        <mxCell id="lyd2s_9okQ7E43MFHWTp-6" value="以qemu为例" style="text;html=1;align=center;verticalAlign=middle;whiteSpace=wrap;rounded=0;fontSize=16;labelBackgroundColor=#FFFFCC;" vertex="1" parent="1">
          <mxGeometry x="40" y="150" width="110" height="20" as="geometry" />
        </mxCell>
        <mxCell id="lyd2s_9okQ7E43MFHWTp-7" value="product-virt-qemu-x86" style="rounded=0;whiteSpace=wrap;html=1;" vertex="1" parent="1">
          <mxGeometry x="230" y="280" width="170" height="50" as="geometry" />
        </mxCell>
        <mxCell id="lyd2s_9okQ7E43MFHWTp-8" value="product-virt-qemu-arm" style="rounded=0;whiteSpace=wrap;html=1;" vertex="1" parent="1">
          <mxGeometry x="230" y="510" width="170" height="50" as="geometry" />
        </mxCell>
        <mxCell id="lyd2s_9okQ7E43MFHWTp-9" value="组件架构:部署到母机" style="text;html=1;align=center;verticalAlign=middle;whiteSpace=wrap;rounded=0;fontSize=16;labelBackgroundColor=#FFFFCC;" vertex="1" parent="1">
          <mxGeometry x="235" y="142.5" width="160" height="35" as="geometry" />
        </mxCell>
        <mxCell id="lyd2s_9okQ7E43MFHWTp-10" value="底座架构（master）" style="text;html=1;align=center;verticalAlign=middle;whiteSpace=wrap;rounded=0;fontSize=16;labelBackgroundColor=#FFFFCC;" vertex="1" parent="1">
          <mxGeometry x="520" y="140" width="140" height="30" as="geometry" />
        </mxCell>
        <mxCell id="lyd2s_9okQ7E43MFHWTp-11" value="software" style="rounded=0;whiteSpace=wrap;html=1;" vertex="1" parent="1">
          <mxGeometry x="520" y="240" width="120" height="40" as="geometry" />
        </mxCell>
        <mxCell id="lyd2s_9okQ7E43MFHWTp-12" value="software.arm" style="rounded=0;whiteSpace=wrap;html=1;" vertex="1" parent="1">
          <mxGeometry x="520" y="330" width="120" height="40" as="geometry" />
        </mxCell>
        <mxCell id="lyd2s_9okQ7E43MFHWTp-13" value="X86" style="text;html=1;align=center;verticalAlign=middle;whiteSpace=wrap;rounded=0;" vertex="1" parent="1">
          <mxGeometry x="680" y="240" width="60" height="30" as="geometry" />
        </mxCell>
        <mxCell id="lyd2s_9okQ7E43MFHWTp-14" value="X86" style="text;html=1;align=center;verticalAlign=middle;whiteSpace=wrap;rounded=0;" vertex="1" parent="1">
          <mxGeometry x="680" y="335" width="60" height="30" as="geometry" />
        </mxCell>
        <mxCell id="lyd2s_9okQ7E43MFHWTp-15" value="" style="endArrow=classic;html=1;rounded=0;entryX=0;entryY=0.5;entryDx=0;entryDy=0;exitX=1;exitY=0.25;exitDx=0;exitDy=0;" edge="1" parent="1" source="lyd2s_9okQ7E43MFHWTp-7" target="lyd2s_9okQ7E43MFHWTp-11">
          <mxGeometry width="50" height="50" relative="1" as="geometry">
            <mxPoint x="400" y="310" as="sourcePoint" />
            <mxPoint x="450" y="260" as="targetPoint" />
          </mxGeometry>
        </mxCell>
        <mxCell id="lyd2s_9okQ7E43MFHWTp-16" value="" style="endArrow=classic;html=1;rounded=0;exitX=1;exitY=0.75;exitDx=0;exitDy=0;entryX=0;entryY=0.5;entryDx=0;entryDy=0;" edge="1" parent="1" source="lyd2s_9okQ7E43MFHWTp-7" target="lyd2s_9okQ7E43MFHWTp-12">
          <mxGeometry width="50" height="50" relative="1" as="geometry">
            <mxPoint x="410" y="330" as="sourcePoint" />
            <mxPoint x="500" y="420" as="targetPoint" />
          </mxGeometry>
        </mxCell>
        <mxCell id="lyd2s_9okQ7E43MFHWTp-17" value="software" style="rounded=0;whiteSpace=wrap;html=1;" vertex="1" parent="1">
          <mxGeometry x="520" y="455" width="120" height="40" as="geometry" />
        </mxCell>
        <mxCell id="lyd2s_9okQ7E43MFHWTp-18" value="software.arm" style="rounded=0;whiteSpace=wrap;html=1;" vertex="1" parent="1">
          <mxGeometry x="520" y="545" width="120" height="40" as="geometry" />
        </mxCell>
        <mxCell id="lyd2s_9okQ7E43MFHWTp-19" value="ARM" style="text;html=1;align=center;verticalAlign=middle;whiteSpace=wrap;rounded=0;" vertex="1" parent="1">
          <mxGeometry x="680" y="455" width="60" height="30" as="geometry" />
        </mxCell>
        <mxCell id="lyd2s_9okQ7E43MFHWTp-20" value="ARM" style="text;html=1;align=center;verticalAlign=middle;whiteSpace=wrap;rounded=0;" vertex="1" parent="1">
          <mxGeometry x="680" y="540" width="60" height="30" as="geometry" />
        </mxCell>
        <mxCell id="lyd2s_9okQ7E43MFHWTp-21" value="" style="endArrow=classic;html=1;rounded=0;entryX=0;entryY=0.5;entryDx=0;entryDy=0;exitX=1;exitY=0.25;exitDx=0;exitDy=0;" edge="1" parent="1" source="lyd2s_9okQ7E43MFHWTp-8">
          <mxGeometry width="50" height="50" relative="1" as="geometry">
            <mxPoint x="400" y="513" as="sourcePoint" />
            <mxPoint x="520" y="480" as="targetPoint" />
          </mxGeometry>
        </mxCell>
        <mxCell id="lyd2s_9okQ7E43MFHWTp-22" value="" style="endArrow=classic;html=1;rounded=0;entryX=0;entryY=0.5;entryDx=0;entryDy=0;exitX=1;exitY=0.75;exitDx=0;exitDy=0;" edge="1" parent="1" source="lyd2s_9okQ7E43MFHWTp-8">
          <mxGeometry width="50" height="50" relative="1" as="geometry">
            <mxPoint x="410" y="550" as="sourcePoint" />
            <mxPoint x="520" y="570" as="targetPoint" />
          </mxGeometry>
        </mxCell>
        <mxCell id="lyd2s_9okQ7E43MFHWTp-24" value="" style="endArrow=none;dashed=1;html=1;rounded=0;strokeWidth=2;" edge="1" parent="1">
          <mxGeometry width="50" height="50" relative="1" as="geometry">
            <mxPoint x="190" y="120" as="sourcePoint" />
            <mxPoint x="190" y="660" as="targetPoint" />
          </mxGeometry>
        </mxCell>
        <mxCell id="lyd2s_9okQ7E43MFHWTp-25" value="" style="endArrow=classic;html=1;rounded=0;entryX=0;entryY=0.5;entryDx=0;entryDy=0;" edge="1" parent="1" target="lyd2s_9okQ7E43MFHWTp-7">
          <mxGeometry width="50" height="50" relative="1" as="geometry">
            <mxPoint x="140" y="410" as="sourcePoint" />
            <mxPoint x="220" y="310" as="targetPoint" />
          </mxGeometry>
        </mxCell>
        <mxCell id="lyd2s_9okQ7E43MFHWTp-27" value="" style="endArrow=classic;html=1;rounded=0;exitX=1;exitY=0.5;exitDx=0;exitDy=0;entryX=0;entryY=0.5;entryDx=0;entryDy=0;" edge="1" parent="1" source="lyd2s_9okQ7E43MFHWTp-1" target="lyd2s_9okQ7E43MFHWTp-8">
          <mxGeometry width="50" height="50" relative="1" as="geometry">
            <mxPoint x="220" y="440" as="sourcePoint" />
            <mxPoint x="270" y="390" as="targetPoint" />
          </mxGeometry>
        </mxCell>
      </root>
    </mxGraphModel>
  </diagram>
</mxfile>
